<?xml version="1.0"?>
<svg xmlns="http://www.w3.org/2000/svg" xmlns:xlink="http://www.w3.org/1999/xlink" xmlns:svgjs="http://svgjs.com/svgjs" version="1.1" width="22" height="22" x="0" y="0" viewBox="0 0 512 512" style="enable-background:new 0 0 512 512" xml:space="preserve" class=""><g><g xmlns="http://www.w3.org/2000/svg"><path d="m504.5 62.433h-101.22v-54.83c0-4.143-3.358-7.5-7.5-7.5h-48.63c-4.142 0-7.5 3.357-7.5 7.5s3.358 7.5 7.5 7.5h41.13v340.89h-264.32v-340.89h190.5c4.142 0 7.5-3.357 7.5-7.5s-3.358-7.5-7.5-7.5h-198c-4.142 0-7.5 3.357-7.5 7.5v54.83h-101.46c-4.142 0-7.5 3.357-7.5 7.5v355.68c0 4.143 3.358 7.5 7.5 7.5h92.62c4.142 0 7.5-3.357 7.5-7.5s-3.358-7.5-7.5-7.5h-85.12v-340.68h93.96v16.06h-70.4c-4.142 0-7.5 3.357-7.5 7.5v262.5c0 4.143 3.358 7.5 7.5 7.5h434.88c4.142 0 7.5-3.357 7.5-7.5v-106.58c0-4.143-3.358-7.5-7.5-7.5s-7.5 3.357-7.5 7.5v99.08h-62.66v-216.64h62.66v84.88c0 4.143 3.358 7.5 7.5 7.5s7.5-3.357 7.5-7.5v-123.24c0-4.143-3.358-7.5-7.5-7.5h-70.16v-16.06h93.72v340.68h-364.2c-4.142 0-7.5 3.357-7.5 7.5s3.358 7.5 7.5 7.5h84.638v32.724h-23.563c-21.263 0-38.562 17.299-38.562 38.562 0 4.143 3.358 7.5 7.5 7.5h186.373c4.142 0 7.5-3.357 7.5-7.5 0-21.263-17.299-38.562-38.562-38.562h-23.563v-32.724h209.939c4.142 0 7.5-3.357 7.5-7.5v-355.68c0-4.143-3.358-7.5-7.5-7.5zm-395.54 46.059v15.86h-31.83v-15.86zm-46.832.002v15.859h-16.06v-15.859zm-16.068 30.86 62.9-.001v216.64h-62.9zm419.88-30.862v15.86h-62.66v-15.86zm-125.477 388.405h-168.926c3.139-9.326 11.967-16.062 22.338-16.062h124.249c10.372.001 19.2 6.736 22.339 16.062zm-108.025-31.061v-32.72h47.124v32.72z" fill="#867a7a" data-original="#000000" style="" class=""/><path d="m271.531 402.055c4.142 0 7.5-3.357 7.5-7.5s-3.358-7.5-7.5-7.5h-31.063c-4.142 0-7.5 3.357-7.5 7.5s3.358 7.5 7.5 7.5z" fill="#867a7a" data-original="#000000" style="" class=""/><path d="m318.125 217.54h-124.25c-4.142 0-7.5 3.357-7.5 7.5s3.358 7.5 7.5 7.5h124.249c4.142 0 7.5-3.357 7.5-7.5s-3.357-7.5-7.499-7.5z" fill="#867a7a" data-original="#000000" style="" class=""/><path d="m223.605 279.553h-31.122c-4.142 0-7.5 3.357-7.5 7.5s3.358 7.5 7.5 7.5h31.122c4.142 0 7.5-3.357 7.5-7.5s-3.357-7.5-7.5-7.5z" fill="#867a7a" data-original="#000000" style="" class=""/><path d="m318.125 279.665h-62.125c-4.142 0-7.5 3.357-7.5 7.5s3.358 7.5 7.5 7.5h62.125c4.142 0 7.5-3.357 7.5-7.5s-3.358-7.5-7.5-7.5z" fill="#867a7a" data-original="#000000" style="" class=""/><path d="m223.605 248.49h-31.122c-4.142 0-7.5 3.357-7.5 7.5s3.358 7.5 7.5 7.5h31.122c4.142 0 7.5-3.357 7.5-7.5s-3.357-7.5-7.5-7.5z" fill="#867a7a" data-original="#000000" style="" class=""/><path d="m318.125 248.603h-62.125c-4.142 0-7.5 3.357-7.5 7.5s3.358 7.5 7.5 7.5h62.125c4.142 0 7.5-3.357 7.5-7.5s-3.358-7.5-7.5-7.5z" fill="#867a7a" data-original="#000000" style="" class=""/><path d="m256 62.229c-38.391 0-69.625 31.233-69.625 69.624 0 38.392 31.233 69.625 69.625 69.625 37.826 0 69.625-31.419 69.625-69.625 0-38.39-31.234-69.624-69.625-69.624zm-23.562 118.899v-27.017c.015-.009.033-.019.053-.028l15.971-4.033h15.076l15.971 4.033c.021.01.038.02.053.028v27.017c-15.708 7.134-31.416 7.134-47.124 0zm15.385-54.255v-10.405c0-4.509 3.668-8.177 8.177-8.177s8.177 3.668 8.177 8.177v10.405c0 4.509-3.668 8.177-8.177 8.177s-8.177-3.668-8.177-8.177zm46.739 43.631v-16.629c0-9.765-10.257-15.434-18.146-16.043 1.76-3.265 2.761-6.997 2.761-10.958v-10.405c0-12.779-10.397-23.177-23.177-23.177s-23.177 10.397-23.177 23.177v10.405c0 3.962 1.001 7.693 2.761 10.958-7.889.609-18.146 6.279-18.146 16.043v16.629c-9.917-9.895-16.063-23.568-16.063-38.651 0-30.12 24.504-54.624 54.625-54.624s54.625 24.504 54.625 54.624c0 15.083-6.146 28.757-16.063 38.651z" fill="#867a7a" data-original="#000000" style="" class=""/></g></g></svg>
